HIERARCHY
ROOT Bip001
{
 OFFSET 0.000000 0.000000 0.000000
 CHANNELS 6 Xposition Yposition Zposition Xrotation Yrotation Zrotation
 JOINT Bip001_Pelvis
 {
  OFFSET -0.041037 -0.005508 0.164154
  CHANNELS 3 Xrotation Yrotation Zrotation
  JOINT Bip001_Spine
  {
   OFFSET 0.044300 0.005946 0.077000
   CHANNELS 3 Xrotation Yrotation Zrotation
   JOINT Bip001_Spine1
   {
    OFFSET -0.000001 -0.000000 0.153780
    CHANNELS 3 Xrotation Yrotation Zrotation
    JOINT Bip001_Spine2
    {
     OFFSET 0.018201 0.002443 0.152706
     CHANNELS 3 Xrotation Yrotation Zrotation
     JOINT Bip001_Neck
     {
      OFFSET -0.043344 -0.005818 0.211513
      CHANNELS 3 Xrotation Yrotation Zrotation
      JOINT Bip001_Head
      {
       OFFSET -0.023929 -0.003212 0.056390
       CHANNELS 3 Xrotation Yrotation Zrotation
       End Site
       {
        OFFSET 0.000000 0.000000 0.000000
       }
      }
     }
     JOINT Bip001_L_Clavicle
     {
      OFFSET -0.029718 -0.053419 0.132514
      CHANNELS 3 Xrotation Yrotation Zrotation
      JOINT Bip001_L_UpperArm
      {
       OFFSET 0.024789 -0.162222 -0.026916
       CHANNELS 3 Xrotation Yrotation Zrotation
       JOINT Bip001_L_Forearm
       {
        OFFSET -0.026577 -0.286863 -0.153731
        CHANNELS 3 Xrotation Yrotation Zrotation
        JOINT Bip001_L_Hand
        {
         OFFSET -0.089077 -0.239781 -0.130038
         CHANNELS 3 Xrotation Yrotation Zrotation
         End Site
         {
          OFFSET 0.000000 0.000000 0.000000
         }
        }
       }
      }
     }
     JOINT Bip001_R_Clavicle
     {
      OFFSET -0.042752 0.043692 0.132514
      CHANNELS 3 Xrotation Yrotation Zrotation
      JOINT Bip001_R_UpperArm
      {
       OFFSET -0.018865 0.163017 -0.026916
       CHANNELS 3 Xrotation Yrotation Zrotation
       JOINT Bip001_R_Forearm
       {
        OFFSET -0.101279 0.269702 -0.153731
        CHANNELS 3 Xrotation Yrotation Zrotation
        JOINT Bip001_R_Hand
        {
         OFFSET -0.149152 0.207806 -0.130038
         CHANNELS 3 Xrotation Yrotation Zrotation
         End Site
         {
          OFFSET 0.000000 0.000000 0.000000
         }
        }
       }
      }
     }
    }
   }
  }
  JOINT Bip001_L_Thigh
  {
   OFFSET 0.011035 -0.082219 0.000000
   CHANNELS 3 Xrotation Yrotation Zrotation
   JOINT Bip001_L_Calf
   {
    OFFSET 0.010188 -0.013597 -0.536358
    CHANNELS 3 Xrotation Yrotation Zrotation
    JOINT Bip001_L_Foot
    {
     OFFSET 0.072725 0.000243 -0.475449
     CHANNELS 3 Xrotation Yrotation Zrotation
     End Site
     {
      OFFSET 0.000000 0.000000 0.000000
     }
    }
   }
  }
  JOINT Bip001_R_Thigh
  {
   OFFSET -0.011035 0.082219 0.000000
   CHANNELS 3 Xrotation Yrotation Zrotation
   JOINT Bip001_R_Calf
   {
    OFFSET 0.006242 0.015802 -0.536358
    CHANNELS 3 Xrotation Yrotation Zrotation
    JOINT Bip001_R_Foot
    {
     OFFSET 0.070215 0.018943 -0.475449
     CHANNELS 3 Xrotation Yrotation Zrotation
     End Site
     {
      OFFSET 0.000000 0.000000 0.000000
     }
    }
   }
  }
 }
}
MOTION
Frames: 10
Frame Time: 0.033333
6.243434 0.851090 -17.306306 -104.515712 8.512804 -35.404997 20.137408 0.176032 1.574572 22.170075 3.683212 -1.266459 5.468984 0.895048 -0.910273 2.223837 0.371694 -0.875823 -17.843655 -0.887016 -0.153652 7.948975 2.002240 10.141438 0.244877 2.218097 -6.581722 -15.138870 32.050622 -4.612667 -3.992470 1.326237 -7.507753 31.887925 -8.194066 -4.426667 0.049424 3.705534 0.303342 26.863165 -46.969207 37.159444 -21.335509 -14.200030 47.509086 14.289607 15.247393 5.482191 -28.858962 4.413859 1.894246 31.352017 1.907631 0.343016 -5.171519 -6.422506 7.793222 -39.674136 4.642922 -4.229926 30.217462 -1.921566 -0.356899 -2.239773 -6.487804 5.368684
6.300460 0.868711 -17.384442 -102.363925 8.942299 -36.484291 20.138714 0.195863 1.248036 21.811984 3.336158 -0.707549 5.391597 0.806967 -0.449674 2.195636 0.334092 -0.354662 -18.803427 -0.029450 -0.026241 8.226665 2.039869 12.973253 0.174679 1.635395 -5.946803 -24.174072 35.125219 8.165869 -4.038060 1.283590 -7.734524 27.401448 -7.925143 -4.567702 0.028507 4.187458 0.780214 27.210343 -46.950315 38.222210 -20.469404 -13.332179 45.207106 14.627756 15.709910 6.088398 -30.627406 2.574197 -0.002585 26.257095 1.578711 0.343131 1.722360 -4.068976 6.884279 -39.734380 3.209012 -6.143392 32.809003 -2.115962 -0.335980 -1.585419 -6.806479 3.468147
6.330885 0.884841 -17.430534 -100.293019 8.017455 -34.392523 20.208296 0.154037 1.531255 20.525496 3.332193 0.015418 5.074175 0.804072 0.254077 2.049206 0.340614 0.298920 -18.961824 1.302873 0.259732 8.426451 1.768947 14.430576 0.136795 2.013499 -4.856996 -37.559469 33.968184 25.405433 -4.501764 1.367693 -8.699597 24.124061 -9.724814 -4.234084 -0.006537 3.770199 1.256488 26.908227 -45.790395 37.928090 -19.965391 -12.433302 43.366996 16.727900 16.251316 5.937050 -33.516616 0.583212 -1.260267 25.010512 1.582430 0.340140 3.556013 1.570850 -1.955481 -38.593661 2.602731 -9.155778 37.078295 -2.354006 -0.293526 -0.746637 -5.279694 -0.386415
6.379890 0.881535 -17.500877 -99.886247 7.597171 -35.530841 20.272414 0.230834 1.201186 19.735786 3.735214 0.561591 4.878714 0.967035 0.823708 1.966756 0.396276 0.915448 -17.839411 2.064617 0.391882 8.826046 1.743358 14.175428 0.081281 1.991536 -3.617561 -45.876375 30.632615 36.348447 -5.203407 1.644918 -10.073457 19.362692 -9.623587 -3.916765 -0.008051 3.560271 1.437720 27.846386 -44.489265 37.012335 -19.816625 -12.277544 43.387327 16.893456 15.620839 5.758839 -33.325215 0.212673 -0.049788 29.064128 1.772576 0.350865 3.957344 1.417254 -5.578293 -35.461412 3.564784 -10.384796 43.188957 -2.588275 -0.213697 -1.585987 -3.880837 -2.023817
6.423381 0.857907 -17.562243 -101.848623 7.784527 -35.180158 20.209748 0.262333 0.809946 19.520036 4.431359 1.122580 4.832331 1.141968 1.453142 1.922086 0.457736 1.508340 -15.777707 2.466257 0.447975 9.396701 1.950250 12.027207 0.006042 1.252129 -2.060248 -50.338255 27.550117 42.184786 -6.422647 2.210998 -12.545876 14.253878 -6.335572 -3.125821 0.012602 3.896095 1.222980 29.509130 -43.618748 35.789237 -20.658488 -12.927299 44.784662 15.556699 14.123978 5.710447 -31.818266 1.200513 2.308630 38.403233 2.454442 0.298653 -0.085231 -2.984616 -4.627192 -30.205610 6.041574 -10.284607 51.547946 -3.120985 -0.019916 -4.131933 -3.181103 -1.639356
6.462487 0.825788 -17.612321 -103.983164 9.043208 -36.005904 20.162553 0.167148 0.542872 19.608793 4.415003 1.885900 4.872706 1.200373 2.286848 1.917388 0.445775 2.319005 -14.338201 2.842146 0.539256 9.760302 1.689007 9.245244 0.002662 -0.189113 -0.702494 -53.375753 25.339750 45.228227 -8.358104 2.983507 -16.394262 12.338425 2.576566 -1.162733 -0.004303 5.243565 1.018943 30.158966 -44.236422 34.193000 -20.962573 -13.730905 45.891238 14.441314 13.616936 5.423663 -30.543639 1.591307 1.444684 42.656843 2.740130 0.240586 -9.226090 -4.297657 -5.948555 -23.085114 7.330183 -9.678562 57.221412 -3.402963 0.115574 -5.188827 -3.834263 0.179290
6.508092 0.799757 -17.666206 -106.315648 8.771608 -34.088912 20.039239 0.230339 0.896013 19.897599 4.616742 2.145005 4.884015 1.275247 2.543948 1.954116 0.466505 2.595773 -14.313876 2.485281 0.468048 9.809197 1.057186 5.167774 0.037026 -1.258318 -0.123300 -54.328234 23.763089 42.874839 -10.093906 3.780775 -19.483351 12.531572 15.403879 1.218050 -0.012696 4.757692 1.107860 28.944259 -44.571579 31.200516 -21.126976 -14.107005 46.835256 13.294062 12.834341 5.268537 -34.300217 2.691337 0.277322 43.883991 2.799931 0.216822 -7.774670 -4.080305 -5.876328 -16.933908 7.692846 -8.696126 59.379472 -3.579374 0.206966 -2.279157 -5.742217 3.670960
6.547163 0.777439 -17.734613 -108.361620 7.949865 -31.093018 20.127432 0.149903 1.401793 20.174784 4.691371 2.394415 4.975488 1.273566 2.769323 2.014367 0.445649 2.785237 -14.505726 2.098133 0.431572 9.537499 0.267151 0.574544 0.068539 -2.306304 0.338401 -55.422777 22.436590 39.956306 -11.197990 4.458315 -22.477744 11.173989 27.250310 4.580342 -0.034835 4.226505 1.288085 26.617434 -45.131588 27.256802 -21.317084 -14.295561 46.873615 11.863028 12.060291 5.490444 -38.923642 3.835560 -0.659191 43.836720 2.766031 0.204233 -4.848427 -3.277594 -5.531134 -11.109379 7.101311 -7.459302 60.235019 -3.603726 0.230861 0.268753 -6.265638 7.080771
6.587099 0.767905 -17.810695 -108.400312 7.911274 -29.448227 19.978231 0.118070 1.418492 20.116225 3.599826 2.758646 4.984429 1.039175 2.936400 2.032853 0.325513 3.067331 -14.760338 3.132259 0.564708 9.311044 -0.765362 -5.149852 0.094517 -3.507660 0.282757 -60.252811 21.819582 39.081408 -11.292365 4.686526 -22.714475 4.059329 29.093455 11.388063 -0.020407 4.500758 1.411521 23.709018 -45.633071 25.048453 -20.984606 -14.065096 46.415915 11.316960 10.393874 4.676068 -42.753510 3.922110 -1.906505 40.980455 2.635093 0.256202 -2.302508 -3.322876 -5.630780 -7.967291 3.009300 -4.938400 55.914605 -3.338420 0.076359 -0.021421 -1.510670 9.184671
6.638324 0.768910 -17.891382 -107.386420 7.915611 -27.683842 20.040742 0.142584 1.554792 19.696539 1.788892 2.900194 4.935934 0.569258 3.041141 1.983855 0.146820 3.013779 -14.940345 4.519609 0.819091 8.717047 -2.042531 -10.766811 0.127031 -4.669364 0.037977 -65.124942 20.744679 37.960155 -10.908457 4.315688 -22.007650 -1.067616 28.209041 15.146747 -0.058185 5.413415 1.720184 19.994786 -45.862091 22.993160 -20.963438 -13.721714 45.912752 11.268853 8.492343 3.486049 -46.359613 3.096604 -3.338023 36.826199 2.390985 0.324072 -5.265455 -0.097503 -5.970462 -6.604880 -1.454817 -5.472016 48.431825 -2.808943 -0.121233 -13.048180 3.657082 8.549342
